<svg xmlns="http://www.w3.org/2000/svg" width="74px" height="74px" viewBox="0 0 32 32">
  <title>file_type_cpp</title>
  <polygon points="7.394 26.144 4.848 2 29.15 2 26.602 26.144 16.001 30 7.394 26.144" style="fill: #00599C"/>
  <polygon points="16 28.193 24.372 25.806 26.475 4.948 16 4.948 16 28.193" style="fill: #0088D5"/>
  <polygon points="16 19.15 11.886 19.15 11.617 15.945 16 15.945 16 12.854 15.999 12.854 11.234 12.854 11.306 13.677 11.93 19.428 16 19.428 16 19.15" style="fill: #FFFFFF"/>
  <polygon points="16 24.035 15.998 24.04 13.078 23.208 12.891 20.741 11.38 20.741 10.025 20.741 10.45 25.624 15.998 27.38 16 27.376 16 24.035" style="fill: #FFFFFF"/>
  <polygon points="15.999 15.945 15.999 19.428 19.816 19.428 19.464 23.694 15.999 24.628 15.999 28.37 21.963 25.625 22.007 25.104 22.644 17.148 22.721 15.945 21.852 15.945 15.999 15.945" style="fill: #E6E6E6"/>
  <polygon points="15.999 12.854 15.999 15.945 19.904 15.945 19.619 19.041 15.999 19.041 15.999 22.393 22.268 20.625 22.312 20.104 22.897 14.399 22.973 13.677 22.144 13.677 15.999 13.677" style="fill: #FFFFFF"/>
</svg>
